ISO-10303-21;
HEADER;
/* Generated by software containing ST-Developer
 * from STEP Tools, Inc. (www.steptools.com) 
 */

FILE_DESCRIPTION(
/* description */ (''),
/* implementation_level */ '2;1');

FILE_NAME(
/* name */ 'Custom Connector.stp',
/* time_stamp */ '2026-01-19T22:44:11-05:00',
/* author */ ('Collin'),
/* organization */ (''),
/* preprocessor_version */ 'ST-DEVELOPER v20',
/* originating_system */ 'Autodesk Inventor 2025',
/* authorisation */ '');

FILE_SCHEMA (('AUTOMOTIVE_DESIGN { 1 0 10303 214 3 1 1 }'));
ENDSEC;

DATA;
#10=MECHANICAL_DESIGN_GEOMETRIC_PRESENTATION_REPRESENTATION('',(#13),#908);
#11=SHAPE_REPRESENTATION_RELATIONSHIP('SRR','None',#919,#12);
#12=ADVANCED_BREP_SHAPE_REPRESENTATION('',(#14),#907);
#13=STYLED_ITEM('',(#928),#14);
#14=MANIFOLD_SOLID_BREP('Custom Connector',#520);
#15=FACE_BOUND('',#68,.T.);
#16=FACE_BOUND('',#92,.T.);
#17=PLANE('',#545);
#18=PLANE('',#548);
#19=PLANE('',#551);
#20=PLANE('',#554);
#21=PLANE('',#557);
#22=PLANE('',#561);
#23=PLANE('',#565);
#24=PLANE('',#566);
#25=PLANE('',#569);
#26=PLANE('',#572);
#27=PLANE('',#575);
#28=PLANE('',#578);
#29=PLANE('',#581);
#30=PLANE('',#582);
#31=PLANE('',#583);
#32=PLANE('',#586);
#33=PLANE('',#590);
#34=PLANE('',#594);
#35=PLANE('',#595);
#36=PLANE('',#596);
#37=FACE_OUTER_BOUND('',#66,.T.);
#38=FACE_OUTER_BOUND('',#67,.T.);
#39=FACE_OUTER_BOUND('',#69,.T.);
#40=FACE_OUTER_BOUND('',#70,.T.);
#41=FACE_OUTER_BOUND('',#71,.T.);
#42=FACE_OUTER_BOUND('',#72,.T.);
#43=FACE_OUTER_BOUND('',#73,.T.);
#44=FACE_OUTER_BOUND('',#74,.T.);
#45=FACE_OUTER_BOUND('',#75,.T.);
#46=FACE_OUTER_BOUND('',#76,.T.);
#47=FACE_OUTER_BOUND('',#77,.T.);
#48=FACE_OUTER_BOUND('',#78,.T.);
#49=FACE_OUTER_BOUND('',#79,.T.);
#50=FACE_OUTER_BOUND('',#80,.T.);
#51=FACE_OUTER_BOUND('',#81,.T.);
#52=FACE_OUTER_BOUND('',#82,.T.);
#53=FACE_OUTER_BOUND('',#83,.T.);
#54=FACE_OUTER_BOUND('',#84,.T.);
#55=FACE_OUTER_BOUND('',#85,.T.);
#56=FACE_OUTER_BOUND('',#86,.T.);
#57=FACE_OUTER_BOUND('',#87,.T.);
#58=FACE_OUTER_BOUND('',#88,.T.);
#59=FACE_OUTER_BOUND('',#89,.T.);
#60=FACE_OUTER_BOUND('',#90,.T.);
#61=FACE_OUTER_BOUND('',#91,.T.);
#62=FACE_OUTER_BOUND('',#93,.T.);
#63=FACE_OUTER_BOUND('',#94,.T.);
#64=FACE_OUTER_BOUND('',#95,.T.);
#65=FACE_OUTER_BOUND('',#96,.T.);
#66=EDGE_LOOP('',(#336,#337,#338,#339));
#67=EDGE_LOOP('',(#340,#341,#342,#343,#344,#345));
#68=EDGE_LOOP('',(#346));
#69=EDGE_LOOP('',(#347,#348,#349,#350));
#70=EDGE_LOOP('',(#351,#352,#353,#354));
#71=EDGE_LOOP('',(#355,#356,#357,#358));
#72=EDGE_LOOP('',(#359,#360,#361,#362));
#73=EDGE_LOOP('',(#363,#364,#365,#366));
#74=EDGE_LOOP('',(#367,#368,#369,#370,#371,#372));
#75=EDGE_LOOP('',(#373,#374,#375,#376));
#76=EDGE_LOOP('',(#377,#378,#379,#380,#381,#382));
#77=EDGE_LOOP('',(#383,#384,#385,#386));
#78=EDGE_LOOP('',(#387,#388,#389,#390));
#79=EDGE_LOOP('',(#391,#392,#393,#394));
#80=EDGE_LOOP('',(#395,#396,#397,#398));
#81=EDGE_LOOP('',(#399,#400,#401,#402));
#82=EDGE_LOOP('',(#403,#404,#405,#406,#407,#408));
#83=EDGE_LOOP('',(#409,#410,#411,#412));
#84=EDGE_LOOP('',(#413,#414,#415,#416,#417,#418));
#85=EDGE_LOOP('',(#419,#420,#421,#422));
#86=EDGE_LOOP('',(#423,#424,#425,#426));
#87=EDGE_LOOP('',(#427,#428,#429,#430));
#88=EDGE_LOOP('',(#431,#432,#433,#434));
#89=EDGE_LOOP('',(#435,#436,#437,#438,#439,#440,#441,#442));
#90=EDGE_LOOP('',(#443,#444,#445,#446));
#91=EDGE_LOOP('',(#447,#448,#449,#450,#451,#452));
#92=EDGE_LOOP('',(#453));
#93=EDGE_LOOP('',(#454,#455,#456,#457));
#94=EDGE_LOOP('',(#458,#459,#460,#461,#462,#463,#464,#465));
#95=EDGE_LOOP('',(#466,#467,#468,#469,#470,#471,#472,#473));
#96=EDGE_LOOP('',(#474,#475,#476,#477,#478,#479,#480,#481));
#97=LINE('',#762,#144);
#98=LINE('',#765,#145);
#99=LINE('',#768,#146);
#100=LINE('',#772,#147);
#101=LINE('',#774,#148);
#102=LINE('',#775,#149);
#103=LINE('',#780,#150);
#104=LINE('',#781,#151);
#105=LINE('',#785,#152);
#106=LINE('',#789,#153);
#107=LINE('',#793,#154);
#108=LINE('',#798,#155);
#109=LINE('',#802,#156);
#110=LINE('',#807,#157);
#111=LINE('',#808,#158);
#112=LINE('',#809,#159);
#113=LINE('',#813,#160);
#114=LINE('',#817,#161);
#115=LINE('',#818,#162);
#116=LINE('',#826,#163);
#117=LINE('',#830,#164);
#118=LINE('',#835,#165);
#119=LINE('',#839,#166);
#120=LINE('',#844,#167);
#121=LINE('',#848,#168);
#122=LINE('',#851,#169);
#123=LINE('',#852,#170);
#124=LINE('',#855,#171);
#125=LINE('',#857,#172);
#126=LINE('',#862,#173);
#127=LINE('',#864,#174);
#128=LINE('',#865,#175);
#129=LINE('',#868,#176);
#130=LINE('',#870,#177);
#131=LINE('',#871,#178);
#132=LINE('',#873,#179);
#133=LINE('',#874,#180);
#134=LINE('',#878,#181);
#135=LINE('',#881,#182);
#136=LINE('',#883,#183);
#137=LINE('',#884,#184);
#138=LINE('',#890,#185);
#139=LINE('',#892,#186);
#140=LINE('',#893,#187);
#141=LINE('',#898,#188);
#142=LINE('',#901,#189);
#143=LINE('',#902,#190);
#144=VECTOR('',#603,0.393700787401575);
#145=VECTOR('',#606,0.393700787401575);
#146=VECTOR('',#609,0.393700787401575);
#147=VECTOR('',#612,0.393700787401575);
#148=VECTOR('',#613,0.393700787401575);
#149=VECTOR('',#614,0.393700787401575);
#150=VECTOR('',#619,0.393700787401575);
#151=VECTOR('',#620,0.393700787401575);
#152=VECTOR('',#625,0.393700787401575);
#153=VECTOR('',#628,0.393700787401575);
#154=VECTOR('',#631,0.393700787401575);
#155=VECTOR('',#636,0.393700787401575);
#156=VECTOR('',#639,0.393700787401575);
#157=VECTOR('',#644,0.393700787401575);
#158=VECTOR('',#645,0.393700787401575);
#159=VECTOR('',#646,0.393700787401575);
#160=VECTOR('',#651,0.393700787401575);
#161=VECTOR('',#656,0.393700787401575);
#162=VECTOR('',#657,0.393700787401575);
#163=VECTOR('',#668,0.393700787401575);
#164=VECTOR('',#671,0.393700787401575);
#165=VECTOR('',#676,0.393700787401575);
#166=VECTOR('',#679,0.393700787401575);
#167=VECTOR('',#684,0.393700787401575);
#168=VECTOR('',#687,0.393700787401575);
#169=VECTOR('',#692,0.393700787401575);
#170=VECTOR('',#693,0.393700787401575);
#171=VECTOR('',#698,0.393700787401575);
#172=VECTOR('',#701,0.393700787401575);
#173=VECTOR('',#708,0.393700787401575);
#174=VECTOR('',#709,0.393700787401575);
#175=VECTOR('',#710,0.393700787401575);
#176=VECTOR('',#713,0.393700787401575);
#177=VECTOR('',#714,0.393700787401575);
#178=VECTOR('',#715,0.393700787401575);
#179=VECTOR('',#718,0.393700787401575);
#180=VECTOR('',#719,0.393700787401575);
#181=VECTOR('',#724,0.116476377952756);
#182=VECTOR('',#727,0.393700787401575);
#183=VECTOR('',#728,0.393700787401575);
#184=VECTOR('',#729,0.393700787401575);
#185=VECTOR('',#738,0.393700787401575);
#186=VECTOR('',#739,0.393700787401575);
#187=VECTOR('',#740,0.393700787401575);
#188=VECTOR('',#745,0.393700787401575);
#189=VECTOR('',#750,0.393700787401575);
#190=VECTOR('',#751,0.393700787401575);
#191=CIRCLE('',#543,0.078740157480315);
#192=CIRCLE('',#544,0.078740157480315);
#193=CIRCLE('',#546,0.078740157480315);
#194=CIRCLE('',#547,0.116476377952756);
#195=CIRCLE('',#550,0.078740157480315);
#196=CIRCLE('',#552,0.0316929133858268);
#197=CIRCLE('',#553,0.0316929133858268);
#198=CIRCLE('',#555,0.0316929133858268);
#199=CIRCLE('',#556,0.0316929133858268);
#200=CIRCLE('',#559,0.0316929133858268);
#201=CIRCLE('',#560,0.0316929133858268);
#202=CIRCLE('',#563,0.0316929133858268);
#203=CIRCLE('',#564,0.0316929133858268);
#204=CIRCLE('',#567,0.0316929133858268);
#205=CIRCLE('',#568,0.0316929133858268);
#206=CIRCLE('',#570,0.0316929133858268);
#207=CIRCLE('',#571,0.0316929133858268);
#208=CIRCLE('',#573,0.0316929133858268);
#209=CIRCLE('',#574,0.0316929133858268);
#210=CIRCLE('',#577,0.0316929133858268);
#211=CIRCLE('',#580,0.0316929133858268);
#212=CIRCLE('',#585,0.116476377952756);
#213=CIRCLE('',#588,0.047490157480315);
#214=CIRCLE('',#589,0.047490157480315);
#215=CIRCLE('',#592,0.109990157480315);
#216=CIRCLE('',#593,0.109990157480315);
#217=VERTEX_POINT('',#758);
#218=VERTEX_POINT('',#759);
#219=VERTEX_POINT('',#761);
#220=VERTEX_POINT('',#763);
#221=VERTEX_POINT('',#767);
#222=VERTEX_POINT('',#769);
#223=VERTEX_POINT('',#771);
#224=VERTEX_POINT('',#773);
#225=VERTEX_POINT('',#776);
#226=VERTEX_POINT('',#779);
#227=VERTEX_POINT('',#783);
#228=VERTEX_POINT('',#787);
#229=VERTEX_POINT('',#788);
#230=VERTEX_POINT('',#790);
#231=VERTEX_POINT('',#792);
#232=VERTEX_POINT('',#796);
#233=VERTEX_POINT('',#797);
#234=VERTEX_POINT('',#799);
#235=VERTEX_POINT('',#801);
#236=VERTEX_POINT('',#805);
#237=VERTEX_POINT('',#806);
#238=VERTEX_POINT('',#811);
#239=VERTEX_POINT('',#816);
#240=VERTEX_POINT('',#824);
#241=VERTEX_POINT('',#825);
#242=VERTEX_POINT('',#827);
#243=VERTEX_POINT('',#829);
#244=VERTEX_POINT('',#833);
#245=VERTEX_POINT('',#834);
#246=VERTEX_POINT('',#836);
#247=VERTEX_POINT('',#838);
#248=VERTEX_POINT('',#842);
#249=VERTEX_POINT('',#843);
#250=VERTEX_POINT('',#845);
#251=VERTEX_POINT('',#847);
#252=VERTEX_POINT('',#861);
#253=VERTEX_POINT('',#863);
#254=VERTEX_POINT('',#867);
#255=VERTEX_POINT('',#869);
#256=VERTEX_POINT('',#876);
#257=VERTEX_POINT('',#880);
#258=VERTEX_POINT('',#882);
#259=VERTEX_POINT('',#889);
#260=VERTEX_POINT('',#891);
#261=VERTEX_POINT('',#895);
#262=VERTEX_POINT('',#897);
#263=EDGE_CURVE('',#217,#218,#191,.T.);
#264=EDGE_CURVE('',#218,#219,#97,.T.);
#265=EDGE_CURVE('',#219,#220,#192,.T.);
#266=EDGE_CURVE('',#220,#217,#98,.T.);
#267=EDGE_CURVE('',#221,#217,#99,.T.);
#268=EDGE_CURVE('',#222,#221,#193,.T.);
#269=EDGE_CURVE('',#223,#222,#100,.T.);
#270=EDGE_CURVE('',#223,#224,#101,.T.);
#271=EDGE_CURVE('',#218,#224,#102,.T.);
#272=EDGE_CURVE('',#225,#225,#194,.T.);
#273=EDGE_CURVE('',#226,#220,#103,.T.);
#274=EDGE_CURVE('',#221,#226,#104,.T.);
#275=EDGE_CURVE('',#226,#227,#195,.T.);
#276=EDGE_CURVE('',#227,#222,#105,.T.);
#277=EDGE_CURVE('',#228,#229,#106,.T.);
#278=EDGE_CURVE('',#230,#228,#196,.T.);
#279=EDGE_CURVE('',#231,#230,#107,.T.);
#280=EDGE_CURVE('',#229,#231,#197,.T.);
#281=EDGE_CURVE('',#232,#233,#108,.T.);
#282=EDGE_CURVE('',#234,#233,#198,.T.);
#283=EDGE_CURVE('',#235,#234,#109,.T.);
#284=EDGE_CURVE('',#232,#235,#199,.T.);
#285=EDGE_CURVE('',#236,#237,#110,.T.);
#286=EDGE_CURVE('',#235,#236,#111,.T.);
#287=EDGE_CURVE('',#234,#237,#112,.T.);
#288=EDGE_CURVE('',#238,#236,#200,.T.);
#289=EDGE_CURVE('',#230,#238,#113,.T.);
#290=EDGE_CURVE('',#232,#228,#201,.T.);
#291=EDGE_CURVE('',#239,#238,#114,.T.);
#292=EDGE_CURVE('',#231,#239,#115,.T.);
#293=EDGE_CURVE('',#237,#239,#202,.T.);
#294=EDGE_CURVE('',#229,#233,#203,.T.);
#295=EDGE_CURVE('',#240,#241,#116,.T.);
#296=EDGE_CURVE('',#242,#241,#204,.T.);
#297=EDGE_CURVE('',#243,#242,#117,.T.);
#298=EDGE_CURVE('',#240,#243,#205,.T.);
#299=EDGE_CURVE('',#244,#245,#118,.T.);
#300=EDGE_CURVE('',#246,#244,#206,.T.);
#301=EDGE_CURVE('',#247,#246,#119,.T.);
#302=EDGE_CURVE('',#245,#247,#207,.T.);
#303=EDGE_CURVE('',#248,#249,#120,.T.);
#304=EDGE_CURVE('',#249,#250,#208,.T.);
#305=EDGE_CURVE('',#250,#251,#121,.T.);
#306=EDGE_CURVE('',#251,#248,#209,.T.);
#307=EDGE_CURVE('',#247,#250,#122,.T.);
#308=EDGE_CURVE('',#246,#251,#123,.T.);
#309=EDGE_CURVE('',#240,#244,#210,.T.);
#310=EDGE_CURVE('',#243,#248,#124,.T.);
#311=EDGE_CURVE('',#242,#249,#125,.T.);
#312=EDGE_CURVE('',#245,#241,#211,.T.);
#313=EDGE_CURVE('',#252,#244,#126,.T.);
#314=EDGE_CURVE('',#253,#252,#127,.T.);
#315=EDGE_CURVE('',#253,#240,#128,.T.);
#316=EDGE_CURVE('',#233,#254,#129,.T.);
#317=EDGE_CURVE('',#255,#254,#130,.T.);
#318=EDGE_CURVE('',#229,#255,#131,.T.);
#319=EDGE_CURVE('',#245,#228,#132,.T.);
#320=EDGE_CURVE('',#241,#232,#133,.T.);
#321=EDGE_CURVE('',#256,#256,#212,.T.);
#322=EDGE_CURVE('',#256,#225,#134,.T.);
#323=EDGE_CURVE('',#257,#255,#135,.T.);
#324=EDGE_CURVE('',#258,#257,#136,.T.);
#325=EDGE_CURVE('',#252,#258,#137,.T.);
#326=EDGE_CURVE('',#224,#257,#213,.T.);
#327=EDGE_CURVE('',#258,#223,#214,.T.);
#328=EDGE_CURVE('',#259,#219,#138,.T.);
#329=EDGE_CURVE('',#260,#259,#139,.T.);
#330=EDGE_CURVE('',#227,#260,#140,.T.);
#331=EDGE_CURVE('',#261,#259,#215,.T.);
#332=EDGE_CURVE('',#262,#261,#141,.T.);
#333=EDGE_CURVE('',#260,#262,#216,.T.);
#334=EDGE_CURVE('',#254,#261,#142,.T.);
#335=EDGE_CURVE('',#262,#253,#143,.T.);
#336=ORIENTED_EDGE('',*,*,#263,.T.);
#337=ORIENTED_EDGE('',*,*,#264,.T.);
#338=ORIENTED_EDGE('',*,*,#265,.T.);
#339=ORIENTED_EDGE('',*,*,#266,.T.);
#340=ORIENTED_EDGE('',*,*,#263,.F.);
#341=ORIENTED_EDGE('',*,*,#267,.F.);
#342=ORIENTED_EDGE('',*,*,#268,.F.);
#343=ORIENTED_EDGE('',*,*,#269,.F.);
#344=ORIENTED_EDGE('',*,*,#270,.T.);
#345=ORIENTED_EDGE('',*,*,#271,.F.);
#346=ORIENTED_EDGE('',*,*,#272,.T.);
#347=ORIENTED_EDGE('',*,*,#266,.F.);
#348=ORIENTED_EDGE('',*,*,#273,.F.);
#349=ORIENTED_EDGE('',*,*,#274,.F.);
#350=ORIENTED_EDGE('',*,*,#267,.T.);
#351=ORIENTED_EDGE('',*,*,#275,.T.);
#352=ORIENTED_EDGE('',*,*,#276,.T.);
#353=ORIENTED_EDGE('',*,*,#268,.T.);
#354=ORIENTED_EDGE('',*,*,#274,.T.);
#355=ORIENTED_EDGE('',*,*,#277,.F.);
#356=ORIENTED_EDGE('',*,*,#278,.F.);
#357=ORIENTED_EDGE('',*,*,#279,.F.);
#358=ORIENTED_EDGE('',*,*,#280,.F.);
#359=ORIENTED_EDGE('',*,*,#281,.T.);
#360=ORIENTED_EDGE('',*,*,#282,.F.);
#361=ORIENTED_EDGE('',*,*,#283,.F.);
#362=ORIENTED_EDGE('',*,*,#284,.F.);
#363=ORIENTED_EDGE('',*,*,#285,.F.);
#364=ORIENTED_EDGE('',*,*,#286,.F.);
#365=ORIENTED_EDGE('',*,*,#283,.T.);
#366=ORIENTED_EDGE('',*,*,#287,.T.);
#367=ORIENTED_EDGE('',*,*,#288,.F.);
#368=ORIENTED_EDGE('',*,*,#289,.F.);
#369=ORIENTED_EDGE('',*,*,#278,.T.);
#370=ORIENTED_EDGE('',*,*,#290,.F.);
#371=ORIENTED_EDGE('',*,*,#284,.T.);
#372=ORIENTED_EDGE('',*,*,#286,.T.);
#373=ORIENTED_EDGE('',*,*,#291,.F.);
#374=ORIENTED_EDGE('',*,*,#292,.F.);
#375=ORIENTED_EDGE('',*,*,#279,.T.);
#376=ORIENTED_EDGE('',*,*,#289,.T.);
#377=ORIENTED_EDGE('',*,*,#293,.F.);
#378=ORIENTED_EDGE('',*,*,#287,.F.);
#379=ORIENTED_EDGE('',*,*,#282,.T.);
#380=ORIENTED_EDGE('',*,*,#294,.F.);
#381=ORIENTED_EDGE('',*,*,#280,.T.);
#382=ORIENTED_EDGE('',*,*,#292,.T.);
#383=ORIENTED_EDGE('',*,*,#288,.T.);
#384=ORIENTED_EDGE('',*,*,#285,.T.);
#385=ORIENTED_EDGE('',*,*,#293,.T.);
#386=ORIENTED_EDGE('',*,*,#291,.T.);
#387=ORIENTED_EDGE('',*,*,#295,.T.);
#388=ORIENTED_EDGE('',*,*,#296,.F.);
#389=ORIENTED_EDGE('',*,*,#297,.F.);
#390=ORIENTED_EDGE('',*,*,#298,.F.);
#391=ORIENTED_EDGE('',*,*,#299,.F.);
#392=ORIENTED_EDGE('',*,*,#300,.F.);
#393=ORIENTED_EDGE('',*,*,#301,.F.);
#394=ORIENTED_EDGE('',*,*,#302,.F.);
#395=ORIENTED_EDGE('',*,*,#303,.T.);
#396=ORIENTED_EDGE('',*,*,#304,.T.);
#397=ORIENTED_EDGE('',*,*,#305,.T.);
#398=ORIENTED_EDGE('',*,*,#306,.T.);
#399=ORIENTED_EDGE('',*,*,#305,.F.);
#400=ORIENTED_EDGE('',*,*,#307,.F.);
#401=ORIENTED_EDGE('',*,*,#301,.T.);
#402=ORIENTED_EDGE('',*,*,#308,.T.);
#403=ORIENTED_EDGE('',*,*,#306,.F.);
#404=ORIENTED_EDGE('',*,*,#308,.F.);
#405=ORIENTED_EDGE('',*,*,#300,.T.);
#406=ORIENTED_EDGE('',*,*,#309,.F.);
#407=ORIENTED_EDGE('',*,*,#298,.T.);
#408=ORIENTED_EDGE('',*,*,#310,.T.);
#409=ORIENTED_EDGE('',*,*,#303,.F.);
#410=ORIENTED_EDGE('',*,*,#310,.F.);
#411=ORIENTED_EDGE('',*,*,#297,.T.);
#412=ORIENTED_EDGE('',*,*,#311,.T.);
#413=ORIENTED_EDGE('',*,*,#304,.F.);
#414=ORIENTED_EDGE('',*,*,#311,.F.);
#415=ORIENTED_EDGE('',*,*,#296,.T.);
#416=ORIENTED_EDGE('',*,*,#312,.F.);
#417=ORIENTED_EDGE('',*,*,#302,.T.);
#418=ORIENTED_EDGE('',*,*,#307,.T.);
#419=ORIENTED_EDGE('',*,*,#309,.T.);
#420=ORIENTED_EDGE('',*,*,#313,.F.);
#421=ORIENTED_EDGE('',*,*,#314,.F.);
#422=ORIENTED_EDGE('',*,*,#315,.T.);
#423=ORIENTED_EDGE('',*,*,#294,.T.);
#424=ORIENTED_EDGE('',*,*,#316,.T.);
#425=ORIENTED_EDGE('',*,*,#317,.F.);
#426=ORIENTED_EDGE('',*,*,#318,.F.);
#427=ORIENTED_EDGE('',*,*,#290,.T.);
#428=ORIENTED_EDGE('',*,*,#319,.F.);
#429=ORIENTED_EDGE('',*,*,#312,.T.);
#430=ORIENTED_EDGE('',*,*,#320,.T.);
#431=ORIENTED_EDGE('',*,*,#321,.F.);
#432=ORIENTED_EDGE('',*,*,#322,.T.);
#433=ORIENTED_EDGE('',*,*,#272,.F.);
#434=ORIENTED_EDGE('',*,*,#322,.F.);
#435=ORIENTED_EDGE('',*,*,#323,.F.);
#436=ORIENTED_EDGE('',*,*,#324,.F.);
#437=ORIENTED_EDGE('',*,*,#325,.F.);
#438=ORIENTED_EDGE('',*,*,#313,.T.);
#439=ORIENTED_EDGE('',*,*,#299,.T.);
#440=ORIENTED_EDGE('',*,*,#319,.T.);
#441=ORIENTED_EDGE('',*,*,#277,.T.);
#442=ORIENTED_EDGE('',*,*,#318,.T.);
#443=ORIENTED_EDGE('',*,*,#326,.F.);
#444=ORIENTED_EDGE('',*,*,#270,.F.);
#445=ORIENTED_EDGE('',*,*,#327,.F.);
#446=ORIENTED_EDGE('',*,*,#324,.T.);
#447=ORIENTED_EDGE('',*,*,#265,.F.);
#448=ORIENTED_EDGE('',*,*,#328,.F.);
#449=ORIENTED_EDGE('',*,*,#329,.F.);
#450=ORIENTED_EDGE('',*,*,#330,.F.);
#451=ORIENTED_EDGE('',*,*,#275,.F.);
#452=ORIENTED_EDGE('',*,*,#273,.T.);
#453=ORIENTED_EDGE('',*,*,#321,.T.);
#454=ORIENTED_EDGE('',*,*,#331,.F.);
#455=ORIENTED_EDGE('',*,*,#332,.F.);
#456=ORIENTED_EDGE('',*,*,#333,.F.);
#457=ORIENTED_EDGE('',*,*,#329,.T.);
#458=ORIENTED_EDGE('',*,*,#334,.F.);
#459=ORIENTED_EDGE('',*,*,#316,.F.);
#460=ORIENTED_EDGE('',*,*,#281,.F.);
#461=ORIENTED_EDGE('',*,*,#320,.F.);
#462=ORIENTED_EDGE('',*,*,#295,.F.);
#463=ORIENTED_EDGE('',*,*,#315,.F.);
#464=ORIENTED_EDGE('',*,*,#335,.F.);
#465=ORIENTED_EDGE('',*,*,#332,.T.);
#466=ORIENTED_EDGE('',*,*,#276,.F.);
#467=ORIENTED_EDGE('',*,*,#330,.T.);
#468=ORIENTED_EDGE('',*,*,#333,.T.);
#469=ORIENTED_EDGE('',*,*,#335,.T.);
#470=ORIENTED_EDGE('',*,*,#314,.T.);
#471=ORIENTED_EDGE('',*,*,#325,.T.);
#472=ORIENTED_EDGE('',*,*,#327,.T.);
#473=ORIENTED_EDGE('',*,*,#269,.T.);
#474=ORIENTED_EDGE('',*,*,#264,.F.);
#475=ORIENTED_EDGE('',*,*,#271,.T.);
#476=ORIENTED_EDGE('',*,*,#326,.T.);
#477=ORIENTED_EDGE('',*,*,#323,.T.);
#478=ORIENTED_EDGE('',*,*,#317,.T.);
#479=ORIENTED_EDGE('',*,*,#334,.T.);
#480=ORIENTED_EDGE('',*,*,#331,.T.);
#481=ORIENTED_EDGE('',*,*,#328,.T.);
#482=CYLINDRICAL_SURFACE('',#542,0.078740157480315);
#483=CYLINDRICAL_SURFACE('',#549,0.078740157480315);
#484=CYLINDRICAL_SURFACE('',#558,0.0316929133858268);
#485=CYLINDRICAL_SURFACE('',#562,0.0316929133858268);
#486=CYLINDRICAL_SURFACE('',#576,0.0316929133858268);
#487=CYLINDRICAL_SURFACE('',#579,0.0316929133858268);
#488=CYLINDRICAL_SURFACE('',#584,0.116476377952756);
#489=CYLINDRICAL_SURFACE('',#587,0.047490157480315);
#490=CYLINDRICAL_SURFACE('',#591,0.109990157480315);
#491=ADVANCED_FACE('',(#37),#482,.T.);
#492=ADVANCED_FACE('',(#38,#15),#17,.T.);
#493=ADVANCED_FACE('',(#39),#18,.T.);
#494=ADVANCED_FACE('',(#40),#483,.T.);
#495=ADVANCED_FACE('',(#41),#19,.F.);
#496=ADVANCED_FACE('',(#42),#20,.F.);
#497=ADVANCED_FACE('',(#43),#21,.T.);
#498=ADVANCED_FACE('',(#44),#484,.T.);
#499=ADVANCED_FACE('',(#45),#22,.T.);
#500=ADVANCED_FACE('',(#46),#485,.T.);
#501=ADVANCED_FACE('',(#47),#23,.F.);
#502=ADVANCED_FACE('',(#48),#24,.F.);
#503=ADVANCED_FACE('',(#49),#25,.F.);
#504=ADVANCED_FACE('',(#50),#26,.F.);
#505=ADVANCED_FACE('',(#51),#27,.T.);
#506=ADVANCED_FACE('',(#52),#486,.T.);
#507=ADVANCED_FACE('',(#53),#28,.T.);
#508=ADVANCED_FACE('',(#54),#487,.T.);
#509=ADVANCED_FACE('',(#55),#29,.T.);
#510=ADVANCED_FACE('',(#56),#30,.T.);
#511=ADVANCED_FACE('',(#57),#31,.T.);
#512=ADVANCED_FACE('',(#58),#488,.F.);
#513=ADVANCED_FACE('',(#59),#32,.T.);
#514=ADVANCED_FACE('',(#60),#489,.F.);
#515=ADVANCED_FACE('',(#61,#16),#33,.T.);
#516=ADVANCED_FACE('',(#62),#490,.T.);
#517=ADVANCED_FACE('',(#63),#34,.T.);
#518=ADVANCED_FACE('',(#64),#35,.T.);
#519=ADVANCED_FACE('',(#65),#36,.F.);
#520=CLOSED_SHELL('',(#491,#492,#493,#494,#495,#496,#497,#498,#499,#500,
#501,#502,#503,#504,#505,#506,#507,#508,#509,#510,#511,#512,#513,#514,#515,
#516,#517,#518,#519));
#521=DERIVED_UNIT_ELEMENT(#523,1.);
#522=DERIVED_UNIT_ELEMENT(#913,-3.);
#523=(
CONVERSION_BASED_UNIT('gram',#525)
MASS_UNIT()
NAMED_UNIT(#910)
);
#524=(
MASS_UNIT()
NAMED_UNIT(*)
SI_UNIT(.KILO.,.GRAM.)
);
#525=MASS_MEASURE_WITH_UNIT(MASS_MEASURE(0.001),#524);
#526=DERIVED_UNIT((#521,#522));
#527=MEASURE_REPRESENTATION_ITEM('density measure',
POSITIVE_RATIO_MEASURE(1.),#526);
#528=PROPERTY_DEFINITION_REPRESENTATION(#533,#530);
#529=PROPERTY_DEFINITION_REPRESENTATION(#534,#531);
#530=REPRESENTATION('material name',(#532),#907);
#531=REPRESENTATION('density',(#527),#907);
#532=DESCRIPTIVE_REPRESENTATION_ITEM('Generic','Generic');
#533=PROPERTY_DEFINITION('material property','material name',#921);
#534=PROPERTY_DEFINITION('material property','density of part',#921);
#535=DATE_TIME_ROLE('creation_date');
#536=APPLIED_DATE_AND_TIME_ASSIGNMENT(#537,#535,(#921));
#537=DATE_AND_TIME(#538,#539);
#538=CALENDAR_DATE(2026,19,1);
#539=LOCAL_TIME(0,0,0.,#540);
#540=COORDINATED_UNIVERSAL_TIME_OFFSET(0,0,.BEHIND.);
#541=AXIS2_PLACEMENT_3D('',#756,#597,#598);
#542=AXIS2_PLACEMENT_3D('',#757,#599,#600);
#543=AXIS2_PLACEMENT_3D('',#760,#601,#602);
#544=AXIS2_PLACEMENT_3D('',#764,#604,#605);
#545=AXIS2_PLACEMENT_3D('',#766,#607,#608);
#546=AXIS2_PLACEMENT_3D('',#770,#610,#611);
#547=AXIS2_PLACEMENT_3D('',#777,#615,#616);
#548=AXIS2_PLACEMENT_3D('',#778,#617,#618);
#549=AXIS2_PLACEMENT_3D('',#782,#621,#622);
#550=AXIS2_PLACEMENT_3D('',#784,#623,#624);
#551=AXIS2_PLACEMENT_3D('',#786,#626,#627);
#552=AXIS2_PLACEMENT_3D('',#791,#629,#630);
#553=AXIS2_PLACEMENT_3D('',#794,#632,#633);
#554=AXIS2_PLACEMENT_3D('',#795,#634,#635);
#555=AXIS2_PLACEMENT_3D('',#800,#637,#638);
#556=AXIS2_PLACEMENT_3D('',#803,#640,#641);
#557=AXIS2_PLACEMENT_3D('',#804,#642,#643);
#558=AXIS2_PLACEMENT_3D('',#810,#647,#648);
#559=AXIS2_PLACEMENT_3D('',#812,#649,#650);
#560=AXIS2_PLACEMENT_3D('',#814,#652,#653);
#561=AXIS2_PLACEMENT_3D('',#815,#654,#655);
#562=AXIS2_PLACEMENT_3D('',#819,#658,#659);
#563=AXIS2_PLACEMENT_3D('',#820,#660,#661);
#564=AXIS2_PLACEMENT_3D('',#821,#662,#663);
#565=AXIS2_PLACEMENT_3D('',#822,#664,#665);
#566=AXIS2_PLACEMENT_3D('',#823,#666,#667);
#567=AXIS2_PLACEMENT_3D('',#828,#669,#670);
#568=AXIS2_PLACEMENT_3D('',#831,#672,#673);
#569=AXIS2_PLACEMENT_3D('',#832,#674,#675);
#570=AXIS2_PLACEMENT_3D('',#837,#677,#678);
#571=AXIS2_PLACEMENT_3D('',#840,#680,#681);
#572=AXIS2_PLACEMENT_3D('',#841,#682,#683);
#573=AXIS2_PLACEMENT_3D('',#846,#685,#686);
#574=AXIS2_PLACEMENT_3D('',#849,#688,#689);
#575=AXIS2_PLACEMENT_3D('',#850,#690,#691);
#576=AXIS2_PLACEMENT_3D('',#853,#694,#695);
#577=AXIS2_PLACEMENT_3D('',#854,#696,#697);
#578=AXIS2_PLACEMENT_3D('',#856,#699,#700);
#579=AXIS2_PLACEMENT_3D('',#858,#702,#703);
#580=AXIS2_PLACEMENT_3D('',#859,#704,#705);
#581=AXIS2_PLACEMENT_3D('',#860,#706,#707);
#582=AXIS2_PLACEMENT_3D('',#866,#711,#712);
#583=AXIS2_PLACEMENT_3D('',#872,#716,#717);
#584=AXIS2_PLACEMENT_3D('',#875,#720,#721);
#585=AXIS2_PLACEMENT_3D('',#877,#722,#723);
#586=AXIS2_PLACEMENT_3D('',#879,#725,#726);
#587=AXIS2_PLACEMENT_3D('',#885,#730,#731);
#588=AXIS2_PLACEMENT_3D('',#886,#732,#733);
#589=AXIS2_PLACEMENT_3D('',#887,#734,#735);
#590=AXIS2_PLACEMENT_3D('',#888,#736,#737);
#591=AXIS2_PLACEMENT_3D('',#894,#741,#742);
#592=AXIS2_PLACEMENT_3D('',#896,#743,#744);
#593=AXIS2_PLACEMENT_3D('',#899,#746,#747);
#594=AXIS2_PLACEMENT_3D('',#900,#748,#749);
#595=AXIS2_PLACEMENT_3D('',#903,#752,#753);
#596=AXIS2_PLACEMENT_3D('',#904,#754,#755);
#597=DIRECTION('axis',(0.,0.,1.));
#598=DIRECTION('refdir',(1.,0.,0.));
#599=DIRECTION('center_axis',(0.,0.,-1.));
#600=DIRECTION('ref_axis',(0.707106781186547,-0.707106781186547,0.));
#601=DIRECTION('center_axis',(0.,-1.02706095464715E-17,1.));
#602=DIRECTION('ref_axis',(0.707106781186547,-0.707106781186547,0.));
#603=DIRECTION('',(0.,0.,1.));
#604=DIRECTION('center_axis',(0.,2.05412190929431E-17,-1.));
#605=DIRECTION('ref_axis',(0.707106781186547,-0.707106781186547,0.));
#606=DIRECTION('',(0.,0.,-1.));
#607=DIRECTION('center_axis',(0.,1.02706095464715E-17,-1.));
#608=DIRECTION('ref_axis',(0.,1.,1.02706095464715E-17));
#609=DIRECTION('',(1.,0.,0.));
#610=DIRECTION('center_axis',(0.,-1.02706095464715E-17,1.));
#611=DIRECTION('ref_axis',(-0.707106781186547,-0.707106781186547,0.));
#612=DIRECTION('',(0.,-1.,-1.02706095464715E-17));
#613=DIRECTION('',(1.,0.,0.));
#614=DIRECTION('',(-2.10269512239613E-16,1.,1.02706095464715E-17));
#615=DIRECTION('center_axis',(0.,-1.02706095464715E-17,1.));
#616=DIRECTION('ref_axis',(1.,0.,0.));
#617=DIRECTION('center_axis',(0.,-1.,0.));
#618=DIRECTION('ref_axis',(0.,0.,-1.));
#619=DIRECTION('',(1.,0.,0.));
#620=DIRECTION('',(0.,0.,1.));
#621=DIRECTION('center_axis',(0.,0.,1.));
#622=DIRECTION('ref_axis',(-0.707106781186547,-0.707106781186547,0.));
#623=DIRECTION('center_axis',(0.,2.05412190929431E-17,-1.));
#624=DIRECTION('ref_axis',(-0.707106781186547,-0.707106781186547,0.));
#625=DIRECTION('',(0.,0.,-1.));
#626=DIRECTION('center_axis',(0.,0.,-1.));
#627=DIRECTION('ref_axis',(-1.,0.,0.));
#628=DIRECTION('',(1.,0.,0.));
#629=DIRECTION('center_axis',(0.,0.,-1.));
#630=DIRECTION('ref_axis',(0.,-1.,0.));
#631=DIRECTION('',(-1.,0.,0.));
#632=DIRECTION('center_axis',(0.,0.,-1.));
#633=DIRECTION('ref_axis',(0.,1.,0.));
#634=DIRECTION('center_axis',(0.,0.,-1.));
#635=DIRECTION('ref_axis',(-1.,0.,0.));
#636=DIRECTION('',(1.,0.,0.));
#637=DIRECTION('center_axis',(0.,0.,-1.));
#638=DIRECTION('ref_axis',(0.,1.,0.));
#639=DIRECTION('',(1.,0.,0.));
#640=DIRECTION('center_axis',(0.,0.,-1.));
#641=DIRECTION('ref_axis',(0.,-1.,0.));
#642=DIRECTION('center_axis',(0.,1.,0.));
#643=DIRECTION('ref_axis',(1.,0.,0.));
#644=DIRECTION('',(1.,0.,0.));
#645=DIRECTION('',(0.,0.,-1.));
#646=DIRECTION('',(0.,0.,-1.));
#647=DIRECTION('center_axis',(0.,0.,-1.));
#648=DIRECTION('ref_axis',(0.,-1.,0.));
#649=DIRECTION('center_axis',(0.,0.,-1.));
#650=DIRECTION('ref_axis',(0.,-1.,0.));
#651=DIRECTION('',(0.,0.,-1.));
#652=DIRECTION('center_axis',(0.,0.,1.));
#653=DIRECTION('ref_axis',(0.,-1.,0.));
#654=DIRECTION('center_axis',(0.,-1.,0.));
#655=DIRECTION('ref_axis',(-1.,0.,0.));
#656=DIRECTION('',(-1.,0.,0.));
#657=DIRECTION('',(0.,0.,-1.));
#658=DIRECTION('center_axis',(0.,0.,-1.));
#659=DIRECTION('ref_axis',(0.,1.,0.));
#660=DIRECTION('center_axis',(0.,0.,-1.));
#661=DIRECTION('ref_axis',(0.,1.,0.));
#662=DIRECTION('center_axis',(0.,0.,1.));
#663=DIRECTION('ref_axis',(0.,1.,0.));
#664=DIRECTION('center_axis',(0.,0.,1.));
#665=DIRECTION('ref_axis',(1.,0.,0.));
#666=DIRECTION('center_axis',(0.,0.,-1.));
#667=DIRECTION('ref_axis',(-1.,0.,0.));
#668=DIRECTION('',(1.,0.,0.));
#669=DIRECTION('center_axis',(0.,0.,-1.));
#670=DIRECTION('ref_axis',(0.,1.,0.));
#671=DIRECTION('',(1.,0.,0.));
#672=DIRECTION('center_axis',(0.,0.,-1.));
#673=DIRECTION('ref_axis',(0.,-1.,0.));
#674=DIRECTION('center_axis',(0.,0.,-1.));
#675=DIRECTION('ref_axis',(-1.,0.,0.));
#676=DIRECTION('',(1.,0.,0.));
#677=DIRECTION('center_axis',(0.,0.,-1.));
#678=DIRECTION('ref_axis',(0.,-1.,0.));
#679=DIRECTION('',(-1.,0.,0.));
#680=DIRECTION('center_axis',(0.,0.,-1.));
#681=DIRECTION('ref_axis',(0.,1.,0.));
#682=DIRECTION('center_axis',(0.,0.,1.));
#683=DIRECTION('ref_axis',(1.,0.,0.));
#684=DIRECTION('',(1.,0.,0.));
#685=DIRECTION('center_axis',(0.,0.,-1.));
#686=DIRECTION('ref_axis',(0.,1.,0.));
#687=DIRECTION('',(-1.,0.,0.));
#688=DIRECTION('center_axis',(0.,0.,-1.));
#689=DIRECTION('ref_axis',(0.,-1.,0.));
#690=DIRECTION('center_axis',(0.,-1.,0.));
#691=DIRECTION('ref_axis',(-1.,0.,0.));
#692=DIRECTION('',(0.,0.,-1.));
#693=DIRECTION('',(0.,0.,-1.));
#694=DIRECTION('center_axis',(0.,0.,-1.));
#695=DIRECTION('ref_axis',(0.,-1.,0.));
#696=DIRECTION('center_axis',(0.,0.,1.));
#697=DIRECTION('ref_axis',(0.,-1.,0.));
#698=DIRECTION('',(0.,0.,-1.));
#699=DIRECTION('center_axis',(0.,1.,0.));
#700=DIRECTION('ref_axis',(1.,0.,0.));
#701=DIRECTION('',(0.,0.,-1.));
#702=DIRECTION('center_axis',(0.,0.,-1.));
#703=DIRECTION('ref_axis',(0.,1.,0.));
#704=DIRECTION('center_axis',(0.,0.,1.));
#705=DIRECTION('ref_axis',(0.,1.,0.));
#706=DIRECTION('center_axis',(0.,0.,-1.));
#707=DIRECTION('ref_axis',(0.,1.,0.));
#708=DIRECTION('',(1.,0.,0.));
#709=DIRECTION('',(0.,-1.,0.));
#710=DIRECTION('',(1.,0.,0.));
#711=DIRECTION('center_axis',(0.,0.,-1.));
#712=DIRECTION('ref_axis',(0.,1.,0.));
#713=DIRECTION('',(1.,0.,0.));
#714=DIRECTION('',(-2.10269512239613E-16,1.,0.));
#715=DIRECTION('',(1.,0.,0.));
#716=DIRECTION('center_axis',(0.,0.,-1.));
#717=DIRECTION('ref_axis',(0.,1.,0.));
#718=DIRECTION('',(1.,0.,0.));
#719=DIRECTION('',(1.,0.,0.));
#720=DIRECTION('center_axis',(0.,0.,-1.));
#721=DIRECTION('ref_axis',(1.,0.,0.));
#722=DIRECTION('center_axis',(0.,2.05412190929431E-17,-1.));
#723=DIRECTION('ref_axis',(1.,0.,0.));
#724=DIRECTION('',(0.,0.,-1.));
#725=DIRECTION('center_axis',(0.,-1.,0.));
#726=DIRECTION('ref_axis',(0.,0.,-1.));
#727=DIRECTION('',(0.,0.,-1.));
#728=DIRECTION('',(1.,0.,0.));
#729=DIRECTION('',(0.,0.,1.));
#730=DIRECTION('center_axis',(1.,0.,0.));
#731=DIRECTION('ref_axis',(0.,0.,-1.));
#732=DIRECTION('center_axis',(-1.,-2.10269512239613E-16,0.));
#733=DIRECTION('ref_axis',(0.,0.,-1.));
#734=DIRECTION('center_axis',(1.,0.,0.));
#735=DIRECTION('ref_axis',(0.,0.,-1.));
#736=DIRECTION('center_axis',(0.,-2.05412190929431E-17,1.));
#737=DIRECTION('ref_axis',(0.,-1.,-2.05412190929431E-17));
#738=DIRECTION('',(2.10269512239613E-16,-1.,-2.05412190929431E-17));
#739=DIRECTION('',(1.,0.,0.));
#740=DIRECTION('',(0.,1.,2.05412190929431E-17));
#741=DIRECTION('center_axis',(1.,0.,0.));
#742=DIRECTION('ref_axis',(0.,0.,1.));
#743=DIRECTION('center_axis',(1.,2.10269512239613E-16,0.));
#744=DIRECTION('ref_axis',(0.,0.,1.));
#745=DIRECTION('',(1.,0.,0.));
#746=DIRECTION('center_axis',(-1.,0.,0.));
#747=DIRECTION('ref_axis',(0.,0.,1.));
#748=DIRECTION('center_axis',(0.,1.,0.));
#749=DIRECTION('ref_axis',(0.,0.,1.));
#750=DIRECTION('',(0.,0.,1.));
#751=DIRECTION('',(0.,0.,-1.));
#752=DIRECTION('center_axis',(-1.,0.,0.));
#753=DIRECTION('ref_axis',(0.,0.,1.));
#754=DIRECTION('center_axis',(-1.,-2.10269512239613E-16,0.));
#755=DIRECTION('ref_axis',(0.,0.,1.));
#756=CARTESIAN_POINT('',(0.,0.,0.));
#757=CARTESIAN_POINT('Origin',(-0.762641821240405,-0.865128857869193,1.14285009032403));
#758=CARTESIAN_POINT('',(-0.762641821240405,-0.943869015349508,1.14173228346457));
#759=CARTESIAN_POINT('',(-0.68390166376009,-0.865128857869193,1.14173228346457));
#760=CARTESIAN_POINT('Origin',(-0.762641821240405,-0.865128857869193,1.14173228346457));
#761=CARTESIAN_POINT('',(-0.68390166376009,-0.865128857869193,1.20423228346457));
#762=CARTESIAN_POINT('',(-0.68390166376009,-0.865128857869193,1.14285009032403));
#763=CARTESIAN_POINT('',(-0.762641821240405,-0.943869015349508,1.20423228346457));
#764=CARTESIAN_POINT('Origin',(-0.762641821240405,-0.865128857869193,1.20423228346457));
#765=CARTESIAN_POINT('',(-0.762641821240405,-0.943869015349508,1.14285009032403));
#766=CARTESIAN_POINT('Origin',(-1.2350827661223,-0.943869015349508,1.14173228346457));
#767=CARTESIAN_POINT('',(-1.15634260864198,-0.943869015349508,1.14173228346457));
#768=CARTESIAN_POINT('',(-1.2350827661223,-0.943869015349508,1.14173228346457));
#769=CARTESIAN_POINT('',(-1.2350827661223,-0.865128857869193,1.14173228346457));
#770=CARTESIAN_POINT('Origin',(-1.15634260864198,-0.865128857869193,1.14173228346457));
#771=CARTESIAN_POINT('',(-1.2350827661223,0.120078740157481,1.14173228346457));
#772=CARTESIAN_POINT('',(-1.2350827661223,0.120078740157481,1.14173228346457));
#773=CARTESIAN_POINT('',(-0.683901663760091,0.120078740157481,1.14173228346457));
#774=CARTESIAN_POINT('',(-1.2350827661223,0.120078740157481,1.14173228346457));
#775=CARTESIAN_POINT('',(-0.683901663760091,-0.650384537102682,1.14173228346457));
#776=CARTESIAN_POINT('',(-1.07596859289395,-0.600758779129032,1.14173228346457));
#777=CARTESIAN_POINT('Origin',(-0.959492214941193,-0.600758779129032,1.14173228346457));
#778=CARTESIAN_POINT('Origin',(-1.2350827661223,-0.943869015349508,1.20423228346457));
#779=CARTESIAN_POINT('',(-1.15634260864198,-0.943869015349508,1.20423228346457));
#780=CARTESIAN_POINT('',(-1.2350827661223,-0.943869015349508,1.20423228346457));
#781=CARTESIAN_POINT('',(-1.15634260864198,-0.943869015349508,1.14285009032403));
#782=CARTESIAN_POINT('Origin',(-1.15634260864198,-0.865128857869193,1.14285009032403));
#783=CARTESIAN_POINT('',(-1.2350827661223,-0.865128857869193,1.20423228346457));
#784=CARTESIAN_POINT('Origin',(-1.15634260864198,-0.865128857869193,1.20423228346457));
#785=CARTESIAN_POINT('',(-1.2350827661223,-0.865128857869193,1.14285009032403));
#786=CARTESIAN_POINT('Origin',(-0.84988590551181,0.198818897637796,0.958703510902405));
#787=CARTESIAN_POINT('',(-0.891386364589245,0.167568897637796,0.958703510902405));
#788=CARTESIAN_POINT('',(-0.808385446434375,0.167568897637796,0.958703510902405));
#789=CARTESIAN_POINT('',(-1.2350827661223,0.167568897637796,0.958703510902405));
#790=CARTESIAN_POINT('',(-0.886106377952755,0.167125984251969,0.958703510902405));
#791=CARTESIAN_POINT('Origin',(-0.886106377952755,0.198818897637796,0.958703510902405));
#792=CARTESIAN_POINT('',(-0.813665433070865,0.167125984251969,0.958703510902405));
#793=CARTESIAN_POINT('',(-0.813665433070865,0.167125984251969,0.958703510902405));
#794=CARTESIAN_POINT('Origin',(-0.813665433070865,0.198818897637796,0.958703510902405));
#795=CARTESIAN_POINT('Origin',(-0.84988590551181,0.198818897637796,0.958703510902405));
#796=CARTESIAN_POINT('',(-0.891386364589245,0.230068897637796,0.958703510902405));
#797=CARTESIAN_POINT('',(-0.808385446434375,0.230068897637796,0.958703510902405));
#798=CARTESIAN_POINT('',(-1.2350827661223,0.230068897637796,0.958703510902405));
#799=CARTESIAN_POINT('',(-0.813665433070865,0.230511811023622,0.958703510902405));
#800=CARTESIAN_POINT('Origin',(-0.813665433070865,0.198818897637796,0.958703510902405));
#801=CARTESIAN_POINT('',(-0.886106377952755,0.230511811023622,0.958703510902405));
#802=CARTESIAN_POINT('',(-0.886106377952755,0.230511811023622,0.958703510902405));
#803=CARTESIAN_POINT('Origin',(-0.886106377952755,0.198818897637796,0.958703510902405));
#804=CARTESIAN_POINT('Origin',(-0.886106377952755,0.230511811023622,0.958703510902405));
#805=CARTESIAN_POINT('',(-0.886106377952755,0.230511811023622,0.862049967595319));
#806=CARTESIAN_POINT('',(-0.813665433070865,0.230511811023622,0.862049967595319));
#807=CARTESIAN_POINT('',(-0.923114251968503,0.230511811023622,0.862049967595319));
#808=CARTESIAN_POINT('',(-0.886106377952755,0.230511811023622,0.958703510902405));
#809=CARTESIAN_POINT('',(-0.813665433070865,0.230511811023622,0.958703510902405));
#810=CARTESIAN_POINT('Origin',(-0.886106377952755,0.198818897637796,0.958703510902405));
#811=CARTESIAN_POINT('',(-0.886106377952755,0.167125984251969,0.862049967595319));
#812=CARTESIAN_POINT('Origin',(-0.886106377952755,0.198818897637796,0.862049967595319));
#813=CARTESIAN_POINT('',(-0.886106377952755,0.167125984251969,0.958703510902405));
#814=CARTESIAN_POINT('Origin',(-0.886106377952755,0.198818897637796,0.958703510902405));
#815=CARTESIAN_POINT('Origin',(-0.813665433070865,0.167125984251969,0.958703510902405));
#816=CARTESIAN_POINT('',(-0.813665433070865,0.167125984251969,0.862049967595319));
#817=CARTESIAN_POINT('',(-0.886893779527558,0.167125984251969,0.862049967595319));
#818=CARTESIAN_POINT('',(-0.813665433070865,0.167125984251969,0.958703510902405));
#819=CARTESIAN_POINT('Origin',(-0.813665433070865,0.198818897637796,0.958703510902405));
#820=CARTESIAN_POINT('Origin',(-0.813665433070865,0.198818897637796,0.862049967595319));
#821=CARTESIAN_POINT('Origin',(-0.813665433070865,0.198818897637796,0.958703510902405));
#822=CARTESIAN_POINT('Origin',(-0.960122125984251,0.198818897637796,0.862049967595319));
#823=CARTESIAN_POINT('Origin',(-1.07035834645669,0.198818897637796,0.958703510902405));
#824=CARTESIAN_POINT('',(-1.11185880553413,0.230068897637796,0.958703510902405));
#825=CARTESIAN_POINT('',(-1.02885788737926,0.230068897637796,0.958703510902405));
#826=CARTESIAN_POINT('',(-1.2350827661223,0.230068897637796,0.958703510902405));
#827=CARTESIAN_POINT('',(-1.03413787401575,0.230511811023622,0.958703510902405));
#828=CARTESIAN_POINT('Origin',(-1.03413787401575,0.198818897637796,0.958703510902405));
#829=CARTESIAN_POINT('',(-1.10657881889764,0.230511811023622,0.958703510902405));
#830=CARTESIAN_POINT('',(-1.10657881889764,0.230511811023622,0.958703510902405));
#831=CARTESIAN_POINT('Origin',(-1.10657881889764,0.198818897637796,0.958703510902405));
#832=CARTESIAN_POINT('Origin',(-1.07035834645669,0.198818897637796,0.958703510902405));
#833=CARTESIAN_POINT('',(-1.11185880553413,0.167568897637796,0.958703510902405));
#834=CARTESIAN_POINT('',(-1.02885788737926,0.167568897637796,0.958703510902405));
#835=CARTESIAN_POINT('',(-1.2350827661223,0.167568897637796,0.958703510902405));
#836=CARTESIAN_POINT('',(-1.10657881889764,0.167125984251969,0.958703510902405));
#837=CARTESIAN_POINT('Origin',(-1.10657881889764,0.198818897637796,0.958703510902405));
#838=CARTESIAN_POINT('',(-1.03413787401575,0.167125984251969,0.958703510902405));
#839=CARTESIAN_POINT('',(-1.03413787401575,0.167125984251969,0.958703510902405));
#840=CARTESIAN_POINT('Origin',(-1.03413787401575,0.198818897637796,0.958703510902405));
#841=CARTESIAN_POINT('Origin',(-0.960122125984251,0.198818897637796,0.862049967595319));
#842=CARTESIAN_POINT('',(-1.10657881889764,0.230511811023622,0.862049967595319));
#843=CARTESIAN_POINT('',(-1.03413787401575,0.230511811023622,0.862049967595319));
#844=CARTESIAN_POINT('',(-1.03335047244094,0.230511811023622,0.862049967595319));
#845=CARTESIAN_POINT('',(-1.03413787401575,0.167125984251969,0.862049967595319));
#846=CARTESIAN_POINT('Origin',(-1.03413787401575,0.198818897637796,0.862049967595319));
#847=CARTESIAN_POINT('',(-1.10657881889764,0.167125984251969,0.862049967595319));
#848=CARTESIAN_POINT('',(-0.997129999999999,0.167125984251969,0.862049967595319));
#849=CARTESIAN_POINT('Origin',(-1.10657881889764,0.198818897637796,0.862049967595319));
#850=CARTESIAN_POINT('Origin',(-1.03413787401575,0.167125984251969,0.958703510902405));
#851=CARTESIAN_POINT('',(-1.03413787401575,0.167125984251969,0.958703510902405));
#852=CARTESIAN_POINT('',(-1.10657881889764,0.167125984251969,0.958703510902405));
#853=CARTESIAN_POINT('Origin',(-1.10657881889764,0.198818897637796,0.958703510902405));
#854=CARTESIAN_POINT('Origin',(-1.10657881889764,0.198818897637796,0.958703510902405));
#855=CARTESIAN_POINT('',(-1.10657881889764,0.230511811023622,0.958703510902405));
#856=CARTESIAN_POINT('Origin',(-1.10657881889764,0.230511811023622,0.958703510902405));
#857=CARTESIAN_POINT('',(-1.03413787401575,0.230511811023622,0.958703510902405));
#858=CARTESIAN_POINT('Origin',(-1.03413787401575,0.198818897637796,0.958703510902405));
#859=CARTESIAN_POINT('Origin',(-1.03413787401575,0.198818897637796,0.958703510902405));
#860=CARTESIAN_POINT('Origin',(-1.2350827661223,0.167568897637796,0.958703510902405));
#861=CARTESIAN_POINT('',(-1.2350827661223,0.167568897637796,0.958703510902405));
#862=CARTESIAN_POINT('',(-1.2350827661223,0.167568897637796,0.958703510902405));
#863=CARTESIAN_POINT('',(-1.2350827661223,0.230068897637796,0.958703510902405));
#864=CARTESIAN_POINT('',(-1.2350827661223,0.233267716535433,0.958703510902405));
#865=CARTESIAN_POINT('',(-1.2350827661223,0.230068897637796,0.958703510902405));
#866=CARTESIAN_POINT('Origin',(-1.2350827661223,0.167568897637796,0.958703510902405));
#867=CARTESIAN_POINT('',(-0.683901663760091,0.230068897637796,0.958703510902405));
#868=CARTESIAN_POINT('',(-1.2350827661223,0.230068897637796,0.958703510902405));
#869=CARTESIAN_POINT('',(-0.683901663760091,0.167568897637796,0.958703510902405));
#870=CARTESIAN_POINT('',(-0.683901663760091,-0.0946655806090302,0.958703510902405));
#871=CARTESIAN_POINT('',(-1.2350827661223,0.167568897637796,0.958703510902405));
#872=CARTESIAN_POINT('Origin',(-1.2350827661223,0.167568897637796,0.958703510902405));
#873=CARTESIAN_POINT('',(-1.2350827661223,0.167568897637796,0.958703510902405));
#874=CARTESIAN_POINT('',(-1.2350827661223,0.230068897637796,0.958703510902405));
#875=CARTESIAN_POINT('Origin',(-0.959492214941193,-0.600758779129032,1.20423228346457));
#876=CARTESIAN_POINT('',(-1.07596859289395,-0.600758779129032,1.20423228346457));
#877=CARTESIAN_POINT('Origin',(-0.959492214941193,-0.600758779129032,1.20423228346457));
#878=CARTESIAN_POINT('',(-1.07596859289395,-0.600758779129032,1.20423228346457));
#879=CARTESIAN_POINT('Origin',(-1.2350827661223,0.167568897637796,1.09424212598425));
#880=CARTESIAN_POINT('',(-0.683901663760091,0.167568897637796,1.09424212598425));
#881=CARTESIAN_POINT('',(-0.683901663760091,0.167568897637796,1.08785501158387));
#882=CARTESIAN_POINT('',(-1.2350827661223,0.167568897637796,1.09424212598425));
#883=CARTESIAN_POINT('',(-1.2350827661223,0.167568897637796,1.09424212598425));
#884=CARTESIAN_POINT('',(-1.2350827661223,0.167568897637796,0.958703510902405));
#885=CARTESIAN_POINT('Origin',(-1.2350827661223,0.120078740157481,1.09424212598425));
#886=CARTESIAN_POINT('Origin',(-0.683901663760091,0.120078740157481,1.09424212598425));
#887=CARTESIAN_POINT('Origin',(-1.2350827661223,0.120078740157481,1.09424212598425));
#888=CARTESIAN_POINT('Origin',(-1.2350827661223,0.120078740157481,1.20423228346457));
#889=CARTESIAN_POINT('',(-0.683901663760091,0.120078740157481,1.20423228346457));
#890=CARTESIAN_POINT('',(-0.683901663760091,-0.118410659349188,1.20423228346457));
#891=CARTESIAN_POINT('',(-1.2350827661223,0.120078740157481,1.20423228346457));
#892=CARTESIAN_POINT('',(-1.2350827661223,0.120078740157481,1.20423228346457));
#893=CARTESIAN_POINT('',(-1.2350827661223,-0.943869015349508,1.20423228346457));
#894=CARTESIAN_POINT('Origin',(-1.2350827661223,0.120078740157481,1.09424212598425));
#895=CARTESIAN_POINT('',(-0.683901663760091,0.230068897637796,1.09424212598425));
#896=CARTESIAN_POINT('Origin',(-0.683901663760091,0.120078740157481,1.09424212598425));
#897=CARTESIAN_POINT('',(-1.2350827661223,0.230068897637796,1.09424212598425));
#898=CARTESIAN_POINT('',(-1.2350827661223,0.230068897637796,1.09424212598425));
#899=CARTESIAN_POINT('Origin',(-1.2350827661223,0.120078740157481,1.09424212598425));
#900=CARTESIAN_POINT('Origin',(-1.2350827661223,0.230068897637796,0.958703510902405));
#901=CARTESIAN_POINT('',(-0.683901663760091,0.230068897637796,1.02008570404295));
#902=CARTESIAN_POINT('',(-1.2350827661223,0.230068897637796,1.09424212598425));
#903=CARTESIAN_POINT('Origin',(-1.2350827661223,-0.356900058855856,1.08146789718349));
#904=CARTESIAN_POINT('Origin',(-0.683901663760091,-0.356900058855856,1.08146789718349));
#905=UNCERTAINTY_MEASURE_WITH_UNIT(LENGTH_MEASURE(0.000393700787401575),
#911,'DISTANCE_ACCURACY_VALUE',
'Maximum model space distance between geometric entities at asserted c
onnectivities');
#906=UNCERTAINTY_MEASURE_WITH_UNIT(LENGTH_MEASURE(0.000393700787401575),
#911,'DISTANCE_ACCURACY_VALUE',
'Maximum model space distance between geometric entities at asserted c
onnectivities');
#907=(
GEOMETRIC_REPRESENTATION_CONTEXT(3)
GLOBAL_UNCERTAINTY_ASSIGNED_CONTEXT((#905))
GLOBAL_UNIT_ASSIGNED_CONTEXT((#911,#915,#916))
REPRESENTATION_CONTEXT('','3D')
);
#908=(
GEOMETRIC_REPRESENTATION_CONTEXT(3)
GLOBAL_UNCERTAINTY_ASSIGNED_CONTEXT((#906))
GLOBAL_UNIT_ASSIGNED_CONTEXT((#911,#915,#916))
REPRESENTATION_CONTEXT('','3D')
);
#909=DIMENSIONAL_EXPONENTS(1.,0.,0.,0.,0.,0.,0.);
#910=DIMENSIONAL_EXPONENTS(0.,1.,0.,0.,0.,0.,0.);
#911=(
CONVERSION_BASED_UNIT('inch',#914)
LENGTH_UNIT()
NAMED_UNIT(#909)
);
#912=(
LENGTH_UNIT()
NAMED_UNIT(*)
SI_UNIT(.MILLI.,.METRE.)
);
#913=(
LENGTH_UNIT()
NAMED_UNIT(*)
SI_UNIT(.CENTI.,.METRE.)
);
#914=LENGTH_MEASURE_WITH_UNIT(LENGTH_MEASURE(25.4),#912);
#915=(
NAMED_UNIT(*)
PLANE_ANGLE_UNIT()
SI_UNIT($,.RADIAN.)
);
#916=(
NAMED_UNIT(*)
SI_UNIT($,.STERADIAN.)
SOLID_ANGLE_UNIT()
);
#917=SHAPE_DEFINITION_REPRESENTATION(#918,#919);
#918=PRODUCT_DEFINITION_SHAPE('',$,#921);
#919=SHAPE_REPRESENTATION('',(#541),#907);
#920=PRODUCT_DEFINITION_CONTEXT('part definition',#925,'design');
#921=PRODUCT_DEFINITION('Custom Connector','Custom Connector',#922,#920);
#922=PRODUCT_DEFINITION_FORMATION('',$,#927);
#923=PRODUCT_RELATED_PRODUCT_CATEGORY('Custom Connector',
'Custom Connector',(#927));
#924=APPLICATION_PROTOCOL_DEFINITION('international standard',
'automotive_design',2009,#925);
#925=APPLICATION_CONTEXT(
'Core Data for Automotive Mechanical Design Process');
#926=PRODUCT_CONTEXT('part definition',#925,'mechanical');
#927=PRODUCT('Custom Connector','Custom Connector',$,(#926));
#928=PRESENTATION_STYLE_ASSIGNMENT((#929));
#929=SURFACE_STYLE_USAGE(.BOTH.,#932);
#930=SURFACE_STYLE_RENDERING_WITH_PROPERTIES($,#936,(#931));
#931=SURFACE_STYLE_TRANSPARENT(0.);
#932=SURFACE_SIDE_STYLE('',(#933,#930));
#933=SURFACE_STYLE_FILL_AREA(#934);
#934=FILL_AREA_STYLE('',(#935));
#935=FILL_AREA_STYLE_COLOUR('',#936);
#936=COLOUR_RGB('',0.749019607843137,0.749019607843137,0.749019607843137);
ENDSEC;
END-ISO-10303-21;
